# xmcd
#
# Track frame offsets:
#	150
#	5266
#	12061
#	40000
#	46699
#	72947
#	79924
#	114812
#	151087
#	162531
#	180245
#	227002
#	244042
#	277645
#	291270
#
# Disc length: 4205 seconds
#
# Revision: 1
# Processed by: cddbd v1.4PL0 Copyright (c) Steve Scherf et al.
# Submitted via: audiograbber 1.81.02
#
DISCID=a5106b0f
DTITLE=Youp van 't Hek - Ergens in de verte CD 1
DYEAR=1900
DGENRE=Cabaret
TTITLE0=Openingsmuziek
TTITLE1=Altijd ben ik elders
TTITLE2=Het gaat goed
TTITLE3=Ergens in de verte
TTITLE4=De bunker van boer Buitendijk
TTITLE5=Illegaal
TTITLE6=Catastrofe
TTITLE7=David
TTITLE8=Waarom gaan de verkeerde mensen dood?
TTITLE9=Thuis en op tournee
TTITLE10=De moeder van Angela
TTITLE11=Meneer Alzheimer
TTITLE12=Platenfeestje
TTITLE13=Gratis eten
TTITLE14=De Amstel bij nacht
EXTD=
EXTT0=
EXTT1=
EXTT2=
EXTT3=
EXTT4=
EXTT5=
EXTT6=
EXTT7=
EXTT8=
EXTT9=
EXTT10=
EXTT11=
EXTT12=
EXTT13=
EXTT14=
PLAYORDER=
